<mxfile host="app.diagrams.net" modified="2023-12-18T19:42:59.617Z" agent="Mozilla/5.0 (Windows NT 10.0; Win64; x64) AppleWebKit/537.36 (KHTML, like Gecko) Chrome/118.0.5993.732 YaBrowser/23.11.1.732 Yowser/2.5 Safari/537.36" etag="-gsJUm7AjU53wNEe8f-l" version="22.1.11" type="device">
  <diagram name="Страница — 1" id="Lkx1YD9ih--_c7suL7Rt">
    <mxGraphModel dx="2163" dy="787" grid="1" gridSize="10" guides="1" tooltips="1" connect="1" arrows="1" fold="1" page="1" pageScale="1" pageWidth="827" pageHeight="1169" math="0" shadow="0">
      <root>
        <mxCell id="0" />
        <mxCell id="1" parent="0" />
        <mxCell id="ruNT4pBQN5AgCSTh8kKV-1" value="" style="rounded=1;whiteSpace=wrap;html=1;fillColor=#C3FCFF;strokeColor=#0e8088;" vertex="1" parent="1">
          <mxGeometry x="234" y="40" width="360" height="600" as="geometry" />
        </mxCell>
        <mxCell id="ruNT4pBQN5AgCSTh8kKV-2" value="Login" style="rounded=1;whiteSpace=wrap;html=1;fillColor=#DAE8FC;strokeColor=#10739e;" vertex="1" parent="1">
          <mxGeometry x="320" y="210" width="200" height="40" as="geometry" />
        </mxCell>
        <mxCell id="ruNT4pBQN5AgCSTh8kKV-3" value="Password" style="rounded=1;whiteSpace=wrap;html=1;fillColor=#DAE8FC;strokeColor=#6c8ebf;" vertex="1" parent="1">
          <mxGeometry x="320" y="270" width="200" height="40" as="geometry" />
        </mxCell>
        <mxCell id="ruNT4pBQN5AgCSTh8kKV-5" value="" style="ellipse;whiteSpace=wrap;html=1;aspect=fixed;" vertex="1" parent="1">
          <mxGeometry x="530" y="60" width="50" height="50" as="geometry" />
        </mxCell>
        <mxCell id="ruNT4pBQN5AgCSTh8kKV-7" value="Sign in" style="rounded=1;whiteSpace=wrap;html=1;" vertex="1" parent="1">
          <mxGeometry x="440" y="585" width="60" height="30" as="geometry" />
        </mxCell>
        <mxCell id="ruNT4pBQN5AgCSTh8kKV-8" value="Нет учетной записи?" style="text;html=1;strokeColor=none;fillColor=none;align=center;verticalAlign=middle;whiteSpace=wrap;rounded=0;" vertex="1" parent="1">
          <mxGeometry x="310" y="585" width="120" height="30" as="geometry" />
        </mxCell>
        <mxCell id="ruNT4pBQN5AgCSTh8kKV-9" value="log in" style="rounded=1;whiteSpace=wrap;html=1;" vertex="1" parent="1">
          <mxGeometry x="390" y="325" width="60" height="30" as="geometry" />
        </mxCell>
        <mxCell id="ruNT4pBQN5AgCSTh8kKV-15" value="&lt;font style=&quot;font-size: 18px;&quot;&gt;&lt;font style=&quot;&quot;&gt;LOGI&lt;/font&gt;N&lt;/font&gt;" style="shape=ext;double=1;rounded=1;whiteSpace=wrap;html=1;fillColor=none;" vertex="1" parent="1">
          <mxGeometry x="360" y="110" width="120" height="80" as="geometry" />
        </mxCell>
        <mxCell id="ruNT4pBQN5AgCSTh8kKV-16" value="" style="shape=umlActor;verticalLabelPosition=bottom;verticalAlign=top;html=1;outlineConnect=0;" vertex="1" parent="1">
          <mxGeometry x="545" y="70" width="20" height="30" as="geometry" />
        </mxCell>
        <mxCell id="ruNT4pBQN5AgCSTh8kKV-18" value="" style="rounded=1;whiteSpace=wrap;html=1;fillColor=#C3FCFF;strokeColor=#0e8088;" vertex="1" parent="1">
          <mxGeometry x="234" y="690" width="360" height="600" as="geometry" />
        </mxCell>
        <mxCell id="ruNT4pBQN5AgCSTh8kKV-20" value="&lt;font style=&quot;font-size: 14px;&quot;&gt;REGISTRATION&lt;/font&gt;" style="shape=ext;double=1;rounded=1;whiteSpace=wrap;html=1;fillColor=none;" vertex="1" parent="1">
          <mxGeometry x="360" y="770" width="120" height="80" as="geometry" />
        </mxCell>
        <mxCell id="ruNT4pBQN5AgCSTh8kKV-21" value="" style="ellipse;whiteSpace=wrap;html=1;aspect=fixed;" vertex="1" parent="1">
          <mxGeometry x="530" y="710" width="50" height="50" as="geometry" />
        </mxCell>
        <mxCell id="ruNT4pBQN5AgCSTh8kKV-22" value="" style="shape=umlActor;verticalLabelPosition=bottom;verticalAlign=top;html=1;outlineConnect=0;" vertex="1" parent="1">
          <mxGeometry x="545" y="720" width="20" height="30" as="geometry" />
        </mxCell>
        <mxCell id="ruNT4pBQN5AgCSTh8kKV-23" value="Name" style="rounded=1;whiteSpace=wrap;html=1;fillColor=#DAE8FC;" vertex="1" parent="1">
          <mxGeometry x="320" y="870" width="200" height="40" as="geometry" />
        </mxCell>
        <mxCell id="ruNT4pBQN5AgCSTh8kKV-24" value="E-mail" style="rounded=1;whiteSpace=wrap;html=1;fillColor=#DAE8FC;" vertex="1" parent="1">
          <mxGeometry x="320" y="930" width="200" height="40" as="geometry" />
        </mxCell>
        <mxCell id="ruNT4pBQN5AgCSTh8kKV-25" value="Login" style="rounded=1;whiteSpace=wrap;html=1;fillColor=#DAE8FC;" vertex="1" parent="1">
          <mxGeometry x="320" y="990" width="200" height="40" as="geometry" />
        </mxCell>
        <mxCell id="ruNT4pBQN5AgCSTh8kKV-26" value="Password" style="rounded=1;whiteSpace=wrap;html=1;fillColor=#DAE8FC;" vertex="1" parent="1">
          <mxGeometry x="320" y="1050" width="200" height="40" as="geometry" />
        </mxCell>
        <mxCell id="ruNT4pBQN5AgCSTh8kKV-27" value="Repeat password" style="rounded=1;whiteSpace=wrap;html=1;fillColor=#DAE8FC;" vertex="1" parent="1">
          <mxGeometry x="320" y="1109" width="200" height="41" as="geometry" />
        </mxCell>
        <mxCell id="ruNT4pBQN5AgCSTh8kKV-28" value="Confirm" style="rounded=1;whiteSpace=wrap;html=1;" vertex="1" parent="1">
          <mxGeometry x="392" y="1180" width="56" height="30" as="geometry" />
        </mxCell>
        <mxCell id="ruNT4pBQN5AgCSTh8kKV-30" value="&lt;font style=&quot;font-size: 24px;&quot;&gt;CONTENT&lt;/font&gt;" style="rounded=0;whiteSpace=wrap;html=1;fillColor=#B9EFF2;strokeColor=#0e8088;" vertex="1" parent="1">
          <mxGeometry x="-40" y="1360" width="1010" height="600" as="geometry" />
        </mxCell>
        <mxCell id="ruNT4pBQN5AgCSTh8kKV-31" value="Search..." style="rounded=0;whiteSpace=wrap;html=1;" vertex="1" parent="1">
          <mxGeometry x="-40" y="1360" width="1010" height="60" as="geometry" />
        </mxCell>
        <mxCell id="ruNT4pBQN5AgCSTh8kKV-32" value="&lt;font style=&quot;font-size: 24px;&quot;&gt;LEFT&lt;br&gt;SIDE&lt;br&gt;BAR&lt;/font&gt;" style="rounded=0;whiteSpace=wrap;html=1;" vertex="1" parent="1">
          <mxGeometry x="-40" y="1420" width="120" height="540" as="geometry" />
        </mxCell>
        <mxCell id="ruNT4pBQN5AgCSTh8kKV-33" value="&lt;font style=&quot;font-size: 24px;&quot;&gt;FOOTER&lt;/font&gt;" style="rounded=0;whiteSpace=wrap;html=1;" vertex="1" parent="1">
          <mxGeometry x="-40" y="1960" width="1010" height="150" as="geometry" />
        </mxCell>
        <mxCell id="ruNT4pBQN5AgCSTh8kKV-35" value="" style="ellipse;whiteSpace=wrap;html=1;" vertex="1" parent="1">
          <mxGeometry x="-20" y="1367.5" width="70" height="45" as="geometry" />
        </mxCell>
        <mxCell id="ruNT4pBQN5AgCSTh8kKV-34" value="LOGO" style="text;html=1;align=center;verticalAlign=middle;whiteSpace=wrap;rounded=0;" vertex="1" parent="1">
          <mxGeometry x="-15" y="1375" width="60" height="30" as="geometry" />
        </mxCell>
        <mxCell id="ruNT4pBQN5AgCSTh8kKV-36" value="" style="ellipse;whiteSpace=wrap;html=1;aspect=fixed;" vertex="1" parent="1">
          <mxGeometry x="910" y="1365" width="50" height="50" as="geometry" />
        </mxCell>
        <mxCell id="ruNT4pBQN5AgCSTh8kKV-37" value="" style="shape=umlActor;verticalLabelPosition=bottom;verticalAlign=top;html=1;outlineConnect=0;" vertex="1" parent="1">
          <mxGeometry x="930" y="1380" width="10" height="20" as="geometry" />
        </mxCell>
      </root>
    </mxGraphModel>
  </diagram>
</mxfile>
